<?xml version="1.0" standalone="no"?>
<!DOCTYPE svg PUBLIC "-//W3C//DTD SVG 20010904//EN"
 "http://www.w3.org/TR/2001/REC-SVG-20010904/DTD/svg10.dtd">
<svg version="1.0" xmlns="http://www.w3.org/2000/svg"
 width="472.000000pt" height="472.000000pt" viewBox="0 0 472.000000 472.000000"
 preserveAspectRatio="xMidYMid meet">
<metadata>
Created by potrace 1.11, written by Peter Selinger 2001-2013
</metadata>
<g transform="translate(0.000000,472.000000) scale(0.100000,-0.100000)"
fill="#000000" stroke="none">
<path d="M1379 4693 c0 -15 -2 -46 -4 -68 -3 -42 -11 -181 -30 -563 l-6 -127
92 93 c50 51 100 97 110 103 23 12 53 -2 69 -31 10 -18 6 -282 -5 -380 -2 -19
-6 -78 -10 -130 -4 -52 -9 -120 -11 -150 -14 -197 -2 -359 35 -465 56 -156
194 -303 286 -305 14 0 -28 -47 -145 -161 -91 -89 -269 -263 -396 -387 -126
-125 -402 -395 -612 -601 -210 -206 -382 -377 -382 -380 0 -3 629 -6 1397 -6
1560 0 1432 6 1550 -71 133 -88 313 -303 364 -437 12 -31 25 -57 28 -57 3 0
40 32 81 71 41 39 135 128 209 198 324 304 352 343 357 504 3 84 0 101 -32
195 -19 57 -95 224 -169 372 -225 450 -238 497 -198 674 8 32 12 60 11 62 -4
3 -111 -98 -267 -249 -123 -121 -163 -181 -191 -286 -30 -115 -6 -207 127
-481 185 -379 213 -446 213 -501 0 -15 -9 -49 -21 -76 l-20 -48 -182 186
c-224 227 -300 290 -412 340 l-50 23 -825 0 -825 1 -55 31 c-67 38 -116 108
-106 150 9 33 134 158 452 451 54 50 117 109 140 130 55 52 270 252 303 282
14 13 84 78 156 145 228 213 239 224 276 258 40 37 268 249 309 288 15 14 82
77 150 140 68 63 149 138 179 167 l55 52 -75 -19 c-137 -35 -295 -46 -385 -25
l-52 12 -98 -98 c-161 -159 -249 -201 -429 -203 -128 -1 -192 16 -269 71 -75
54 -113 103 -154 200 -26 61 -30 86 -37 218 -15 317 -21 380 -37 437 -8 29
-61 86 -234 258 -202 200 -224 219 -225 193z"/>
<path d="M2480 587 c-124 -107 -189 -174 -206 -214 -27 -61 15 -117 118 -162
71 -30 160 -91 214 -148 29 -29 54 -53 57 -53 15 0 121 192 136 247 16 58 0
91 -103 228 -46 61 -90 127 -97 148 -7 20 -15 37 -19 37 -3 0 -48 -37 -100
-83z"/>
</g>
</svg>
